<svg width="205" height="203" viewBox="0 0 205 203" fill="none" xmlns="http://www.w3.org/2000/svg">
<ellipse cx="102.5" cy="101.5" rx="102.5" ry="101.5" fill="black"/>
<path d="M100.31 48.25V118.3C100.31 130.2 97.0604 139.3 90.5604 145.6C84.1604 151.9 75.3104 155.05 64.0104 155.05C52.0104 155.05 42.4104 151.7 35.2104 145C28.1104 138.3 24.5604 128.65 24.5604 116.05H53.6604C53.7604 124.35 56.8104 128.5 62.8104 128.5C68.2104 128.5 70.9104 125.1 70.9104 118.3V48.25H100.31ZM147.258 131.5H180.108V154H117.858V48.25H147.258V131.5Z" fill="#8FA1FF"/>
<rect x="6" y="71" width="192" height="37" fill="black" fill-opacity="0.5"/>
<path d="M97.2979 87.425C98.4079 87.425 99.3779 87.65 100.208 88.1C101.048 88.54 101.693 89.16 102.143 89.96C102.593 90.76 102.818 91.675 102.818 92.705C102.818 93.725 102.588 94.635 102.128 95.435C101.678 96.235 101.033 96.865 100.193 97.325C99.3629 97.775 98.3979 98 97.2979 98H93.1129V87.425H97.2979ZM97.0729 95.405C97.9329 95.405 98.6079 95.17 99.0979 94.7C99.5879 94.23 99.8329 93.565 99.8329 92.705C99.8329 91.835 99.5879 91.165 99.0979 90.695C98.6079 90.215 97.9329 89.975 97.0729 89.975H96.0529V95.405H97.0729ZM107.083 89.78V91.505H110.458V93.74H107.083V95.645H110.908V98H104.143V87.425H110.908V89.78H107.083ZM122.651 87.425L119.006 98H115.241L111.581 87.425H114.731L117.131 95.06L119.516 87.425H122.651Z" fill="white"/>
</svg>
