<svg width="150" height="150" viewBox="0 0 150 150" fill="none" xmlns="http://www.w3.org/2000/svg">
<circle cx="75" cy="75" r="75" fill="#151515"/>
<path d="M80.7266 16.76V82.16C80.7266 88 78.9266 92.76 75.3266 96.44C71.7266 100.04 66.8466 101.84 60.6866 101.84C54.2066 101.84 49.0866 99.88 45.3266 95.96C41.6466 91.96 39.8066 86.48 39.8066 79.52H45.2066C45.2066 84.64 46.4466 88.84 48.9266 92.12C51.4066 95.4 55.3266 97.04 60.6866 97.04C65.8066 97.04 69.4866 95.6 71.7266 92.72C74.0466 89.76 75.2066 86.24 75.2066 82.16V16.76H80.7266Z" fill="#9FFEAD"/>
<path d="M65.7478 125.44H97.0678V130H60.3478V45.76H65.7478V125.44Z" fill="#9FFEAD"/>
</svg>
